<?xml version="1.0" encoding="utf-8"?>
<!-- Generator: Adobe Illustrator 16.0.0, SVG Export Plug-In . SVG Version: 6.00 Build 0)  -->
<!DOCTYPE svg PUBLIC "-//W3C//DTD SVG 1.1//EN" "http://www.w3.org/Graphics/SVG/1.1/DTD/svg11.dtd">
<svg xmlns="http://www.w3.org/2000/svg" xmlns:xlink="http://www.w3.org/1999/xlink" version="1.1" id="Layer_1" x="0px" y="0px" width="512px" height="512px" viewBox="0 0 512 512" enable-background="new 0 0 512 512" xml:space="preserve">
<g>
	<path d="M465.417,105.44H99.022c-20.12,0-36.479,16.365-36.479,36.489v15.991H46.569c-20.125,0-36.484,16.369-36.484,36.488V370.07   c0,20.125,16.359,36.489,36.484,36.489h366.372c20.125,0,36.48-16.364,36.48-36.489v-15.982h15.995   c20.121,0,36.498-16.369,36.498-36.489V141.93C501.915,121.806,485.538,105.44,465.417,105.44z M416.769,370.07   c0,2.113-1.723,3.836-3.827,3.836H46.569c-2.109,0-3.827-1.723-3.827-3.836V194.409c0-2.113,1.718-3.836,3.827-3.836h366.372   c2.104,0,3.827,1.723,3.827,3.836V370.07z M469.258,317.599c0,2.113-1.723,3.836-3.841,3.836h-15.995V194.409   c0-20.119-16.355-36.488-36.48-36.488H95.196V141.93c0-2.113,1.723-3.836,3.826-3.836h366.395c2.118,0,3.841,1.723,3.841,3.836   V317.599z" fill="#777777"/>
	<path d="M229.737,209.349c-40.244,0-72.88,32.631-72.88,72.894c0,40.258,32.636,72.88,72.88,72.88   c40.263,0,72.898-32.622,72.898-72.88C302.636,241.979,270,209.349,229.737,209.349z M234.905,319.916v6.522   c0,3.334-2.713,6.037-6.029,6.037c-3.329,0-6.024-2.694-6.024-6.02v-5.679c-5.025-0.23-9.967-1.137-14.113-2.424   c-3.92-1.217-6.202-5.301-5.181-9.287l0.129-0.462c0.443-1.785,1.643-3.299,3.268-4.169c1.643-0.87,3.556-1.021,5.292-0.399   c4.098,1.442,8.816,2.455,13.824,2.455c6.983,0,11.801-2.708,11.801-7.637c0-4.67-3.938-7.627-13.062-10.712   c-13.168-4.436-22.145-10.58-22.145-22.522c0-10.837,7.623-19.334,20.791-21.927v-5.665c0-3.325,2.712-6.029,6.042-6.029   c3.334,0,6.028,2.704,6.028,6.029v4.804c4.449,0.199,8.134,0.799,11.21,1.62c3.761,0.994,6.025,4.857,5.053,8.635l-0.111,0.453   c-0.462,1.763-1.625,3.268-3.205,4.16c-1.576,0.896-3.477,1.101-5.212,0.568c-2.966-0.901-6.65-1.643-11.192-1.643   c-7.991,0-10.588,3.453-10.588,6.895c0,4.066,4.319,6.65,14.797,10.588c14.637,5.177,20.551,11.942,20.551,23.033   C256.828,308.094,249.063,317.448,234.905,319.916z" fill="#777777"/>
</g>
</svg>
